<?xml version="1.0" standalone="no"?>
<!DOCTYPE svg PUBLIC "-//W3C//DTD SVG 1.1//EN" "http://www.w3.org/Graphics/SVG/1.1/DTD/svg11.dtd" >
<svg xmlns="http://www.w3.org/2000/svg" xmlns:xlink="http://www.w3.org/1999/xlink" version="1.1">
<metadata>
Created by FontForge 20170731 at Fri Jan  1 02:30:17 1904
 By Aleksey,,,
Glyph for Windows' Egyptian transliteration font v. 2.0; provided by the Centre for Computer-aided Egyptological Research, Utrecht University, The Netherlands.
</metadata>
<defs>
<font id="TransliterationItalic" horiz-adv-x="2048" >
  <font-face 
    font-family="Transliteration"
    font-weight="400"
    font-style="italic"
    font-stretch="normal"
    units-per-em="4096"
    panose-1="2 11 114 0 0 0 0 0 0 0"
    ascent="3276"
    descent="-820"
    x-height="1778"
    cap-height="2703"
    bbox="-606 -860 3584 3450"
    underline-thickness="20"
    underline-position="-248"
    unicode-range="U+0020-2010"
  />
<missing-glyph horiz-adv-x="3072" 
d="M512 0v2560h2048v-2560h-2048zM2496 64v2432h-1920v-2432h1920z" />
    <glyph glyph-name=".notdef" horiz-adv-x="3072" 
d="M512 0v2560h2048v-2560h-2048zM2496 64v2432h-1920v-2432h1920z" />
    <glyph glyph-name=".null" horiz-adv-x="0" 
 />
    <glyph glyph-name="nonmarkingreturn" horiz-adv-x="1024" 
 />
    <glyph glyph-name="space" unicode=" " horiz-adv-x="1024" 
 />
    <glyph glyph-name="exclam" unicode="!" horiz-adv-x="2957" 
d="M917 1495h1176l254 905q12 43 12 70q0 159 -262 159v74h942v-74q-143 0 -209 -61q-57 -53 -98 -201l-574 -2064q-12 -43 -12 -70q0 -159 262 -159v-74h-942v74q144 0 209 61q57 53 98 201l283 1016h-1176l-294 -1049q-12 -43 -12 -70q0 -159 262 -159v-74h-942v74
q144 0 209 61q56 52 98 201l582 2064q12 43 12 70q0 159 -262 159v74h941v-74q-144 0 -209 -61q-55 -52 -98 -201z" />
    <glyph glyph-name="numbersign" unicode="#" horiz-adv-x="2957" 
d="M917 1495h1176l254 905q12 43 12 70q0 159 -262 159v74h942v-74q-143 0 -209 -61q-57 -53 -98 -201l-574 -2064q-12 -43 -12 -70q0 -159 262 -159v-74h-942v74q144 0 209 61q57 53 98 201l283 1016h-1176l-294 -1049q-12 -43 -12 -70q0 -159 262 -159v-74h-942v74
q144 0 209 61q56 52 98 201l582 2064q12 43 12 70q0 159 -262 159v74h941v-74q-144 0 -209 -61q-55 -52 -98 -201zM477 -258h66q0 -324 389 -324q426 0 610 324h65q-88 -227 -293 -370q-206 -146 -448 -146q-418 0 -418 344q0 70 29 172z" />
    <glyph glyph-name="dollar" unicode="$" horiz-adv-x="2957" 
d="M917 1495h1176l254 905q12 43 12 70q0 159 -262 159v74h942v-74q-143 0 -209 -61q-57 -53 -98 -201l-574 -2064q-12 -43 -12 -70q0 -159 262 -159v-74h-942v74q144 0 209 61q57 53 98 201l283 1016h-1176l-294 -1049q-12 -43 -12 -70q0 -159 262 -159v-74h-942v74
q144 0 209 61q56 52 98 201l582 2064q12 43 12 70q0 159 -262 159v74h941v-74q-144 0 -209 -61q-55 -52 -98 -201zM447 -594v205h1203v-205h-1203z" />
    <glyph glyph-name="percent" unicode="%" 
d="M1978 2752l-151 -807l-78 29v193q0 259 -236 389q-111 61 -252 61q-32 0 -90 -8q-183 -25 -295 -205q-73 -118 -73 -241q0 -172 102 -283l549 -598q234 -255 234 -649v-23q-3 -175 -127 -372q-116 -183 -328 -275q-122 -53 -332 -53q-147 0 -233 25l-349 102q-27 8 -65 8
q-88 0 -126 -79q-17 -33 -26 -52h-65l123 922l65 -9q35 -450 160 -585q197 -213 438 -213q240 0 388.5 158.5t148.5 381.5q0 213 -127 357l-602 684q-164 186 -164 446q0 244 168 438q137 159 294 213q155 53 329 53h24q59 -1 179 -48q114 -45 137 -50q91 -20 134 -20
q78 0 136 68q31 36 37 42h73z" />
    <glyph glyph-name="ampersand" unicode="&#x26;" horiz-adv-x="2277" 
d="M291 2703h2175l-164 -639h-65q16 116 16 168q0 328 -320 328h-368l-561 -2208q-9 -37 -9 -73q0 -205 328 -205v-74h-1151v74q306 0 380 132q37 67 75 216l545 2138h-451q-145 0 -313 -185q-128 -141 -211 -311h-66z" />
    <glyph glyph-name="parenleft" unicode="(" horiz-adv-x="1356" 
d="M1159 -709l66 66q-215 129 -377 385q-164 261 -246 594q-86 351 -86 692q0 538 184 983q186 449 557 696l-65 66q-636 -363 -881 -1069q-114 -329 -114 -688q0 -244 61 -492q63 -256 176.5 -472t302.5 -417q171 -182 422 -344z" />
    <glyph glyph-name="parenright" unicode=")" horiz-adv-x="1356" 
d="M98 -614l62 -95q489 283 749 729q129 222 193 459q61 227 61 496q0 342 -110.5 668t-339.5 630q-224 297 -553 533l-62 -99q344 -200 545 -696q180 -443 180 -999q0 -346 -86 -693q-84 -339 -245 -581q-165 -248 -394 -352z" />
    <glyph glyph-name="asterisk" unicode="*" horiz-adv-x="2277" 
d="M291 2703h2175l-164 -639h-65q16 116 16 168q0 328 -320 328h-368l-561 -2208q-9 -37 -9 -73q0 -205 328 -205v-74h-1151v74q306 0 380 132q37 67 75 216l545 2138h-451q-145 0 -313 -185q-128 -141 -211 -311h-66zM164 -594v205h1118v-205h-1118z" />
    <glyph glyph-name="plus" unicode="+" horiz-adv-x="2957" 
d="M516 2703h1102q563 0 879 -365q147 -171 214 -393q37 -123 37 -307q0 -514 -238 -861q-324 -471 -921 -676q-292 -101 -610 -101h-1090v74q144 0 210 61q57 53 98 201l569 2064q12 44 12 70q0 159 -262 159v74zM1175 2474l-565 -2044q-33 -119 -33 -156q0 -113 156 -135
q83 -12 164 -12q271 0 530 97q280 106 449 292q430 473 430 1102v86q0 308 -104 516q-93 183 -287 264q-211 88 -535 100h-17q-158 0 -188 -110zM250 -594v205h1536v-205h-1536z" />
    <glyph glyph-name="comma" unicode="," horiz-adv-x="1024" 
d="M279 -516q-50 0 -50 29q0 34 54 53q97 34 192 176q45 68 45 127q0 99 -119 188q-53 40 -53 123q0 112 74 168q49 37 143 37q81 0 123 -25q102 -60 102 -208q0 -108 -53 -205q-95 -174 -220 -309q-131 -140 -238 -154z" />
    <glyph glyph-name="hyphen.0" unicode="-" horiz-adv-x="1364" 
d="M201 1069h1036l-74 -303h-1036z" />
    <glyph glyph-name="period" unicode="." horiz-adv-x="1024" 
d="M307 164q0 87 59 146t146 59q88 0 146.5 -58.5t58.5 -146.5q0 -87 -59 -146t-146 -59q-86 0 -145.5 59.5t-59.5 145.5z" />
    <glyph glyph-name="slash" unicode="/" horiz-adv-x="1139" 
d="M860 2625h172l-852 -2682h-172z" />
    <glyph glyph-name="zero" unicode="0" 
d="M860 2654q225 143 438 143q279 0 422 -200q205 -286 205 -787q0 -475 -167 -919q-78 -205 -177 -346q-306 -435 -598 -537q-129 -45 -262 -45q-199 0 -336 103q-232 174 -291 552q-20 127 -20 250q0 299 94 637q90 328 278 653q212 368 414 496zM995 2572
q-113 -113 -221 -322q-195 -373 -306 -925q-56 -279 -83 -539q-8 -78 -8 -135q0 -322 110 -471q91 -123 234 -123q103 0 188 45q123 65 214 194q299 420 420 981q83 385 83 730q0 391 -115 573q-75 119 -245 119q-144 0 -271 -127z" />
    <glyph glyph-name="one" unicode="1" 
d="M1597 2732l-704 -2490q-8 -28 -8 -41q0 -127 360 -127v-74h-1118v74q284 0 368 71q57 48 87 154l573 2031q24 85 24 152q0 127 -143 127q-63 0 -221 -25v62l766 155z" />
    <glyph glyph-name="two" unicode="2" 
d="M1630 582l-201 -582h-1458v70l1086 1155q148 158 252 368q116 235 116 426q0 90 -24 156q-54 148 -182 239q-126 88 -289 88q-51 0 -127 -16q-124 -26 -204 -86q-60 -45 -139 -139q-86 -103 -128 -139q-19 -13 -29 -13q-14 0 -20 21q0 95 115 251q90 123 190 211
q144 127 325 181q67 20 176 20q467 0 611 -360q57 -142 57 -303q0 -249 -127 -451q-133 -211 -372 -441l-83 -81q-103 -100 -180 -178l-655 -664h848q298 0 372 267h70z" />
    <glyph glyph-name="three" unicode="3" 
d="M754 2482l-90 -106q-11 -13 -29 -13q-33 0 -33 37q17 99 276 286q105 76 171 91q85 20 184 20q386 0 536 -286q45 -86 45 -189q0 -248 -224 -436q-176 -148 -451 -231q197 -51 320 -263q110 -191 110 -409q0 -91 -20 -176q-37 -158 -148 -335q-108 -172 -261 -297
q-157 -128 -329 -167q-253 -57 -422 -57q-312 0 -401 164q-21 53 -21 90q0 98 74 131q54 24 111 24q96 0 176 -53l241 -160q62 -41 144 -41q98 0 217 66q231 129 299 414q29 122 29 229q0 289 -181 474q-175 178 -467 210q-114 13 -114 49q0 25 49 37q135 26 402 90
q110 31 183 74q290 170 337 426q12 65 12 135q0 191 -131 263q-63 33 -201 52q-272 0 -393 -143z" />
    <glyph glyph-name="four" unicode="4" 
d="M1679 2789h180l-475 -1802h381l-66 -258h-385l-192 -729h-311l192 729h-1036q0 244 94 344zM1073 987l364 1376l-1286 -1376h922z" />
    <glyph glyph-name="five" unicode="5" 
d="M1892 2728l-90 -295h-930l-168 -381q216 -51 282 -72q156 -48 265 -116q130 -83 227 -258q106 -192 115 -459q1 -17 1 -34q0 -219 -99 -444q-197 -451 -647 -641q-211 -89 -426 -89q-187 0 -345 69q-88 38 -114 87q-16 30 -16 73q0 104 57 147q28 21 78 21q119 0 225 -98
q142 -131 414 -131q218 43 388 221q167 176 206 397q16 91 16 180q0 335 -257 545q-203 165 -652 328l426 950h1044z" />
    <glyph glyph-name="six" unicode="6" 
d="M114 1049q55 357 266 704q204 334 496 569q312 251 658 380q278 104 457 104q49 0 49 -17q0 -28 -140 -53q-207 -37 -472 -225q-220 -157 -395 -352q-209 -232 -300 -480q88 43 272 114q73 21 162 21q136 0 279 -53q200 -74 308 -279q97 -183 97 -413q0 -38 -8 -90
q-95 -619 -545 -877q-235 -135 -475 -135q-377 0 -598 312q-127 179 -127 536q0 130 16 234zM1382 1516q-136 155 -354 155q-235 0 -393 -188q-124 -148 -207 -533q-39 -182 -39 -348q0 -126 21 -213q55 -225 245 -295q79 -29 156 -29q280 0 482 347q198 341 198 718
q0 261 -109 386z" />
    <glyph glyph-name="seven" unicode="7" 
d="M553 2728h1544l-4 -127l-1573 -2650h-266l1511 2482h-995q-232 0 -369 -157q-61 -69 -119 -138l-53 29z" />
    <glyph glyph-name="eight" unicode="8" 
d="M704 2621q197 168 553 168q494 0 636 -323q57 -129 57 -250q0 -250 -176 -393q-97 -79 -242 -147q-51 -24 -142 -61l-104 -42q256 -265 381 -479q78 -134 78 -324q0 -373 -266 -594q-251 -209 -623 -209q-359 0 -573 189q-234 207 -234 524q0 213 131 369
q143 170 306 269q106 64 370 173q-272 294 -320 516q-20 92 -20 188q0 266 188 426zM922 1929l290 -287q153 59 299 176q185 148 185 398q0 203 -125 342q-130 145 -330 145q-215 0 -328 -147q-98 -128 -98 -303q0 -218 107 -324zM1229 1138q-110 122 -291 279
q-198 -93 -278 -149q-121 -85 -214 -228q-118 -181 -118 -397q0 -199 106 -373q135 -221 418 -221q249 0 423.5 157.5t174.5 366.5q0 320 -221 565z" />
    <glyph glyph-name="nine" unicode="9" 
d="M41 -74v58q643 236 1041 650q208 216 311 472q-70 -37 -213 -104q-168 -68 -332 -68q-86 0 -156 16q-235 53 -380 307q-111 195 -111 426q0 443 326 804q283 314 677 314q338 0 504 -200q98 -119 154 -266q61 -162 63 -316v-28q0 -221 -44 -448q-131 -670 -648 -1113
q-281 -241 -780 -413q-232 -80 -412 -91zM975 2629q-253 -124 -370 -579q-52 -203 -52 -387q0 -173 49 -291q61 -148 161 -200q102 -55 225 -55q12 0 24 1q316 13 454 258q164 291 164 737q0 234 -86 389q-112 201 -303 201q-115 0 -266 -74z" />
    <glyph glyph-name="colon" unicode=":" horiz-adv-x="1364" 
d="M352 164q0 87 59 146t146 59q88 0 146.5 -58.5t58.5 -146.5q0 -87 -59 -146t-146 -59q-86 0 -145.5 59.5t-59.5 145.5zM754 1614q0 87 58.5 146t145.5 59q88 0 146.5 -58.5t58.5 -146.5q0 -87 -59 -146t-146 -59q-86 0 -145 59.5t-59 145.5z" />
    <glyph glyph-name="semicolon" unicode=";" horiz-adv-x="1364" 
d="M307 -508q-49 0 -49 29q0 34 53 53q99 35 193 176q45 67 45 127q0 100 -119 189q-53 39 -53 122q0 113 74 168q50 37 143 37q82 0 123 -24q102 -60 102 -209q0 -108 -53 -205q-95 -174 -219 -308q-130 -140 -240 -155zM786 1601q0 87 59 146t146 59q88 0 146.5 -58.5
t58.5 -146.5q0 -87 -59 -146t-146 -59q-86 0 -145.5 59.5t-59.5 145.5z" />
    <glyph glyph-name="less" unicode="&#x3c;" horiz-adv-x="2765" 
d="M2425 225v-254l-2085 959v221l2085 958v-254l-1753 -815z" />
    <glyph glyph-name="equal" unicode="=" horiz-adv-x="2765" 
d="M2412 1569v-262h-2064v262h2064zM2412 774v-262h-2064v262h2064z" />
    <glyph glyph-name="greater" unicode="&#x3e;" horiz-adv-x="2765" 
d="M336 225l1753 815l-1753 815v254l2085 -958v-221l-2085 -959v254z" />
    <glyph glyph-name="question" unicode="?" 
d="M762 713l-70 12q44 158 161 465q58 121 155 235l253 299q2 3 107 119q123 135 143 266q17 109 17 172q0 179 -115 295q-82 82 -209 82q-92 0 -202 -53q-130 -61 -130 -143q0 -20 17 -37q90 -89 90 -181q0 -39 -17 -65q-40 -82 -143 -82q-74 0 -131 73q-53 68 -53 144
q0 180 189 315q161 115 388 115q266 0 420 -120q170 -133 170 -392q0 -344 -307 -594l-377 -307q-150 -122 -228 -264q-72 -131 -128 -354zM430 164q0 87 59 146t146 59q88 0 146.5 -58.5t58.5 -146.5q0 -87 -59 -146t-146 -59q-86 0 -145.5 59.5t-59.5 145.5z" />
    <glyph glyph-name="at" unicode="@" horiz-adv-x="2957" 
d="M918 1495h1175l254 905q12 43 12 70q0 159 -262 159v74h942v-74q-143 0 -209 -61q-57 -53 -98 -201l-574 -2064q-12 -43 -12 -70q0 -159 262 -159v-74h-942v74q144 0 209 61q57 53 98 201l283 1016h-1175l-295 -1049q-12 -43 -12 -70q0 -159 262 -159v-74h-942v74
q144 0 209 61q56 52 98 201l582 2064q12 43 12 70q0 159 -262 159v74h941v-74q-145 0 -209 -60q-54 -51 -97 -202zM848 -545q0 78 53 131.5t131 53.5q79 0 132 -53t53 -132q0 -78 -53.5 -131t-131.5 -53q-77 0 -130.5 53.5t-53.5 130.5z" />
    <glyph glyph-name="A" unicode="A" horiz-adv-x="1491" 
d="M344 1319v61q251 0 430 160q168 150 279 422q53 130 53 238q0 278 -406 278h-225l33 66h225q369 0 529 -107q155 -103 155 -278q0 -98 -41 -197q-119 -288 -397 -467q-272 -176 -635 -176zM152 -37v66q355 0 561 270q111 146 147 307q53 111 53 238q0 278 -405 278
q-157 0 -229 -32l32 65q104 33 226 33q379 0 533.5 -116t154.5 -298q0 -83 -41 -201q-98 -281 -380 -445.5t-652 -164.5z" />
    <glyph glyph-name="B" unicode="B" horiz-adv-x="2502" 
d="M512 2703h979q519 0 721 -322q90 -144 90 -304q0 -275 -222 -435q-142 -102 -507 -200q390 -160 499 -402q53 -118 53 -245q0 -230 -170 -421q-147 -166 -380 -265q-255 -109 -559 -109h-1131v74q144 0 209 61q57 53 98 201l570 2064q12 43 12 70q0 159 -262 159v74z
M1167 2433l-258 -942l451 20q285 13 442 302q77 142 77 313v12q-4 224 -94.5 308t-199.5 114q-44 12 -127 12q-76 0 -143 -4q-113 -7 -148 -135zM872 1352l-270 -987q-8 -29 -8 -62q0 -176 254 -176h12q234 3 419 72q172 64 269 215q131 204 131 430q0 350 -274 483
q-52 25 -242 25h-291z" />
    <glyph glyph-name="C" unicode="C" 
d="M1978 2752l-151 -807l-78 29v193q0 259 -236 389q-111 61 -252 61q-32 0 -90 -8q-183 -25 -295 -205q-73 -118 -73 -241q0 -172 102 -283l549 -598q234 -255 234 -649v-23q-3 -175 -127 -372q-116 -183 -328 -275q-122 -53 -332 -53q-147 0 -233 25l-349 102q-27 8 -65 8
q-88 0 -126 -79q-17 -33 -26 -52h-65l123 922l65 -9q35 -450 160 -585q197 -213 438 -213q240 0 388.5 158.5t148.5 381.5q0 213 -127 357l-602 684q-164 186 -164 446q0 244 168 438q137 159 294 213q155 53 329 53h24q59 -1 179 -48q114 -45 137 -50q91 -20 134 -20
q78 0 136 68q31 36 37 42h73zM1065 2843h-127l533 503q26 25 78 25q55 0 77 -29q37 -36 37 -74q0 -59 -57 -94z" />
    <glyph glyph-name="D" unicode="D" 
d="M2109 2605l-561 -2159q-49 -189 -49 -221q0 -73 61 -73q23 0 58 12q79 27 187 193q48 74 67 89q26 21 37 21q16 0 16 -21q0 -35 -45 -98q-116 -163 -175 -223q-102 -104 -235 -154q-43 -16 -86 -16q-192 0 -192 217q0 76 20 143l66 222l-139 -178q-148 -191 -300 -285
q-93 -58 -212 -90q-123 -33 -160 -33q-60 0 -123 24q-283 108 -283 480q0 73 12 135q66 341 266 610q139 187 332 349q221 186 410 244q94 29 181 29q241 0 278 -262l221 861q21 82 21 114q0 72 -90 87q-17 3 -152 3v74l594 102q0 -100 -25 -196zM1434 1147q49 184 49 282
q0 79 -25 156q-24 143 -184 143q-65 0 -135 -24q-189 -65 -375 -309q-150 -197 -245 -429q-114 -279 -114 -556q22 -246 238 -246q76 0 172 33q184 63 386 412q166 287 233 538zM1352 -381l4 -213h-1148v205h1148z" />
    <glyph glyph-name="E" unicode="E" horiz-adv-x="2502" 
d="M909 1331l-270 -979q-17 -62 -17 -90q0 -127 177 -127h8l475 8q300 5 532 140q251 145 361 409h86l-275 -692h-2056v74q144 0 209 61q57 53 98 201l570 2064q12 43 12 70q0 159 -262 159v74h1937l-123 -635h-65v250q0 242 -529 242h-426q-99 0 -123 -86l-278 -1000h495
q258 0 390 402h90l-275 -963h-73l16 217q1 8 1 16q0 114 -121 149.5t-388 35.5h-176z" />
    <glyph glyph-name="F" unicode="F" horiz-adv-x="2502" 
d="M909 1331l-287 -1028q-12 -43 -12 -70q0 -159 262 -159v-74h-942v74q144 0 209 61q57 53 98 201l569 2064q13 47 13 70q0 159 -262 159v74h1937l-123 -635h-65v250q0 242 -528 242h-426q-99 0 -123 -86l-279 -1000h496q143 0 256 134q93 112 133 268h98l-274 -963h-82
l16 217q1 8 1 15q0 116 -137 151q-136 35 -429 35h-119z" />
    <glyph glyph-name="G" unicode="G" horiz-adv-x="2957" 
d="M2474 983l-209 -840q-451 -237 -930 -237q-221 0 -430 57q-502 136 -689 582q-89 209 -89 454q0 122 25 259q106 583 479 968q378 390 938 510q75 16 176 16q203 0 502 -91l145 -44q44 -12 78 -12q78 0 254 147h77l-208 -839h-70q-23 539 -492 667q-136 37 -245 37
q-226 0 -516 -180q-327 -203 -542 -734q-87 -215 -134 -408q-41 -167 -41 -341q0 -308 134 -539q137 -240 390 -337q96 -37 246 -37q161 0 332 53q112 35 180.5 90t93.5 160l152 639q8 34 8 66q0 180 -307 180v74h1089v-74q-168 0 -253 -43q-107 -56 -144 -203z" />
    <glyph glyph-name="H" unicode="H" 
d="M1110 2605l-458 -1663q414 683 839 864q59 25 114 25q134 0 201 -119q45 -80 45 -168q0 -53 -16 -111l-271 -987q-53 -193 -53 -221q0 -73 61 -73q23 0 58 12q75 26 188 193q53 78 66 89q25 21 37 21q16 0 16 -21q0 -35 -45 -98q-116 -163 -175 -223q-102 -104 -235 -154
q-43 -16 -86 -16q-188 0 -188 213q0 76 20 147l304 1086q20 71 20 110q0 71 -45 99q-33 20 -70 20q-50 0 -102 -33q-241 -152 -495 -536q-259 -392 -361 -762l-82 -299h-303l664 2421q21 77 21 118q0 70 -92 84q-12 2 -146 2v74l594 102q0 -105 -25 -196zM537 -475
q0 71 50.5 121.5t121.5 50.5q72 0 122 -50t50 -122q0 -71 -50.5 -121.5t-121.5 -50.5t-121.5 50.5t-50.5 121.5z" />
    <glyph glyph-name="I" unicode="I" horiz-adv-x="1569" 
d="M1360 2367l-569 -2064q-13 -47 -13 -70q0 -159 262 -159v-74h-942v74q144 0 210 61q57 53 98 201l569 2064q12 44 12 70q0 159 -262 159v74h942v-74q-143 0 -209 -61q-57 -53 -98 -201zM156 2031l-61 98q273 73 352 225q-188 13 -188 172q0 71 49.5 123.5t130.5 52.5
q88 0 128 -26q114 -74 114 -178q0 -204 -287 -381q-121 -74 -238 -86z" />
    <glyph glyph-name="J" unicode="J" horiz-adv-x="1818" 
d="M1565 2384l-533 -1901q-86 -306 -416 -478q-170 -89 -354 -95h-8q-102 0 -230 67q-134 69 -164 215q-8 38 -8 78q0 197 160 217q213 0 213 -201q0 -50 -12 -122q0 -65 51 -110.5t117 -45.5q17 0 53 8q79 18 143 246l594 2122q9 32 9 69q0 176 -308 176v74h1090v-74
q-328 0 -397 -245z" />
    <glyph glyph-name="K" unicode="K" horiz-adv-x="2732" 
d="M1204 2392l-233 -852l1269 930q33 24 33 53q0 56 -124 86q-86 20 -167 20v74h893v-74q-119 0 -250 -98l-1286 -962l741 -1336q88 -159 357 -159v-74h-1118v74q323 0 323 102q0 39 -24 82l-668 1208l-315 -1147q-12 -44 -12 -73q0 -172 307 -172v-74h-991v74q144 0 209 61
q57 53 98 201l569 2064q13 47 13 70q0 159 -262 159v74h1072v-74q-369 0 -434 -237z" />
    <glyph glyph-name="L" unicode="L" horiz-adv-x="2277" 
d="M1134 2384l-557 -2028q0 -81 48 -135q50 -57 129 -57h540q297 0 442 90q121 75 239 236q122 166 150 300l66 -20l-217 -770h-2105v74q124 0 192 46.5t115 215.5l569 2064q13 47 13 70q0 159 -262 159v74h1036v-74q-331 0 -398 -245z" />
    <glyph glyph-name="M" unicode="M" horiz-adv-x="3412" 
d="M926 2302l-524 -1913q-21 -77 -21 -127q0 -188 291 -188v-74h-770v74q144 0 209 61q57 53 98 201l569 2064q12 44 12 70q0 159 -261 159v74h712l221 -2031l1372 2031h647v-74q-234 0 -331 -364l-521 -1946q-8 -30 -8 -65q0 -180 307 -180v-74h-1089v74q330 0 397 245
l545 1995l-1552 -2314h-66z" />
    <glyph glyph-name="N" unicode="N" horiz-adv-x="2732" 
d="M836 2244l-475 -1855q-21 -82 -21 -127q0 -188 291 -188v-74h-778v74q146 0 211 60q57 52 96 202l528 2031q12 46 12 86q0 176 -315 176v74h631l880 -2064l463 1675q21 76 21 127q0 188 -291 188v74h770v-74q-143 0 -209 -61q-57 -53 -98 -201l-664 -2416h-78z" />
    <glyph glyph-name="O" unicode="O" horiz-adv-x="2957" 
d="M1036 -82l-221 -225q209 0 381 -33q64 -12 438 -102q171 -41 320 -41q271 0 458 137q77 57 176 145q8 9 25 9q24 0 24 -25q0 -13 -12 -37q-182 -277 -585 -433q-194 -75 -373 -75q-92 0 -160 16l-491 115q-282 66 -389 66q-158 0 -352 -90q-37 -17 -58 -17q-33 0 -33 25
q0 10 17 29l675 565q-388 131 -536 336q-176 244 -176 618q0 202 61 434q101 385 359.5 711.5t609.5 517.5q340 184 678 184q58 0 131 -8q378 -41 592 -337q194 -269 194 -650q0 -215 -70 -426q-150 -452 -380 -714q-122 -138 -299 -298q-135 -122 -305 -210
q-331 -172 -699 -187zM1352 2421q-507 -397 -693 -1192q-77 -331 -77 -541v-20q10 -539 446 -598q66 -9 115 -9q551 0 910 705q155 306 261 704q57 215 57 471q0 270 -90 435q-118 216 -442 216q-269 0 -487 -171z" />
    <glyph glyph-name="P" unicode="P" horiz-adv-x="2502" 
d="M909 1315l-283 -1012q-12 -43 -12 -70q0 -159 262 -159v-74h-942v74q144 0 209 61q57 53 98 201l569 2064q13 47 13 70q0 159 -262 159v74h1008q504 0 714 -274q101 -132 101 -307q0 -304 -243 -532q-325 -304 -757 -304q-305 0 -475 29zM1225 2449l-275 -1007
q631 0 825 205q102 108 150 298q29 114 29 209q0 180 -123 303q-99 99 -316 99q-51 0 -180 -13q-87 -9 -110 -94z" />
    <glyph glyph-name="Q" unicode="Q" horiz-adv-x="2732" 
d="M1204 2392l-234 -852l1270 930q33 24 33 53q0 56 -124 86q-86 20 -167 20v74h893v-74q-119 0 -250 -98l-1286 -962l741 -1336q88 -159 357 -159v-74h-1118v74q323 0 323 102q0 39 -24 82l-668 1208l-316 -1147q-12 -44 -12 -73q0 -172 307 -172v-74h-991v74q144 0 209 61
q57 53 98 201l570 2064q12 43 12 70q0 159 -262 159v74h1073v-74q-369 0 -434 -237zM929 -545q0 78 53.5 131.5t131.5 53.5q79 0 131.5 -53t52.5 -132q0 -77 -53 -130.5t-131 -53.5q-77 0 -131 53.5t-54 130.5z" />
    <glyph glyph-name="R" unicode="R" horiz-adv-x="2502" 
d="M860 1368l-299 -1065q-12 -43 -12 -70q0 -159 262 -159v-74h-942v74q124 0 192 46.5t115 215.5l569 2064q13 47 13 70q0 159 -262 159v74h1007q508 0 716 -279q99 -134 99 -307q0 -110 -41 -229q-128 -372 -782 -520l438 -1159q21 -56 121 -98q87 -37 157 -37v-74h-597
l-484 1343zM1159 2449l-262 -950q135 -12 250 -12q301 0 463 97q188 113 258 386q28 109 28 209q0 179 -123 303q-98 98 -315 98h8q0 -2 -188 -12q-98 -42 -119 -119z" />
    <glyph glyph-name="S" unicode="S" horiz-adv-x="1593" 
d="M1503 1818l-90 -581l-57 4q-12 95 -59 278q-61 149 -245 193q-50 12 -98 12q-213 0 -213 -221q0 -116 78 -225q285 -398 418 -692q20 -44 20 -119q0 -181 -129 -330q-165 -190 -465 -190q-107 0 -311 33l-49 8q-50 8 -74 8q-77 0 -98 -53l-65 8l81 643l62 -4
q62 -320 138 -408q39 -45 107 -88q110 -69 205 -69q78 0 157 51q84 53 106 125q20 64 20 139q0 148 -111 319l-291 447q-98 151 -98 299q0 273 336 388q96 33 180 33q10 0 303 -65q61 -13 74 -13q89 0 111 74zM1536 2510h132l-562 -639h-200l-283 639h90l311 -446z" />
    <glyph glyph-name="T" unicode="T" horiz-adv-x="1139" 
d="M1180 1777v-143h-340l-333 -1188q-49 -175 -49 -221q0 -73 62 -73q22 0 57 12q75 26 188 193q53 79 66 89q26 21 37 21q17 0 17 -21q0 -34 -45 -98q-140 -199 -242 -283q-69 -57 -168 -94q-42 -16 -86 -16q-189 0 -189 213q0 70 21 147l360 1319h-287q0 70 95 110
q125 53 170 79q67 40 147 118q83 82 240 267q38 36 61 36q29 0 29 -36q0 -11 -8 -50l-102 -381h299zM-70 -594v205h778v-205h-778z" />
    <glyph glyph-name="U" unicode="U" horiz-adv-x="2957" 
d="M2703 2384l-426 -1516q-84 -300 -215 -506q-287 -452 -862 -452q-14 0 -82 4q-491 29 -703 402q-99 172 -99 368q0 114 29 217l417 1483q8 28 8 69q0 176 -307 176v74h1089v-74q-328 0 -397 -245l-422 -1503q-57 -203 -57 -316q0 -241 225 -389q149 -98 381 -98
q361 0 599 301q131 165 208 440l438 1565q8 29 8 69q0 176 -307 176v74h831v-74q-152 0 -230 -49q-87 -55 -126 -196z" />
    <glyph glyph-name="V" unicode="V" horiz-adv-x="2502" 
d="M180 2703h950v-74q-167 0 -234 -52q-77 -61 -77 -222l266 -1872l1139 1921q37 62 37 103q0 122 -299 122v74h737v-74q-182 0 -291 -180l-1532 -2531h-78l-356 2494q-31 217 -262 217v74z" />
    <glyph glyph-name="W" unicode="W" horiz-adv-x="3412" 
d="M1695 1851l-962 -1933h-86l-242 2494q-21 217 -262 217v74h950v-74q-146 0 -228 -48q-85 -49 -85 -190q0 -17 2 -36l139 -1704l750 1450l-25 311q-17 217 -262 217v74h950v-74q-146 0 -228 -48q-85 -49 -85 -189q0 -18 2 -37l143 -1708l943 1757q29 54 29 98
q0 127 -291 127v74h737v-74q-196 0 -291 -180l-1340 -2531h-82z" />
    <glyph glyph-name="X" unicode="X" 
d="M1110 2605l-459 -1663q416 683 840 864q59 25 114 25q134 0 201 -119q45 -80 45 -168q0 -53 -16 -111l-271 -987q-53 -193 -53 -221q0 -73 61 -73q23 0 58 12q75 26 188 193q53 78 66 89q25 21 37 21q16 0 16 -21q0 -35 -45 -98q-116 -163 -175 -223q-102 -104 -235 -154
q-43 -16 -86 -16q-188 0 -188 213q0 76 20 147l304 1086q20 71 20 110q0 71 -45 99q-33 20 -70 20q-50 0 -102 -33q-244 -153 -496 -538q-260 -395 -360 -760l-82 -299h-303l664 2421q20 73 20 118q0 70 -92 84q-12 2 -146 2v74l594 102q0 -109 -24 -196zM307 -578v209h897
v-209h-897z" />
    <glyph glyph-name="Y" unicode="Y" horiz-adv-x="2277" 
d="M942 2449l242 -1011l708 974q49 67 49 115q0 102 -274 102v74h790v-74q-183 0 -352 -229l-844 -1143l-249 -905q-13 -47 -13 -78q0 -200 332 -200v-74h-1151v74q303 0 375 129q39 72 80 219l229 827l-344 1172q-39 132 -107 173q-57 35 -204 35v74h1040v-74
q-315 0 -315 -131q0 -16 8 -49z" />
    <glyph glyph-name="Z" unicode="Z" horiz-adv-x="2277" 
d="M315 2126l-65 20l167 557h1962v-69l-1957 -2503l986 37q353 13 540 247q76 95 114 187l47 115l82 4l-226 -721h-2043v70l1957 2490h-876q-295 0 -475 -119q-80 -53 -161 -216q-37 -74 -52 -99z" />
    <glyph glyph-name="bracketleft" unicode="[" horiz-adv-x="1356" 
d="M324 -614h901v131h-324q-154 0 -208 57t-54 213q0 66 4 86v2318q0 37 -4 74v78q0 270 262 270h324v127h-901v-3354z" />
    <glyph glyph-name="bracketright" unicode="]" horiz-adv-x="1356" 
d="M676 -283q0 -90 -41 -131q-45 -37 -184 -37h-353v-131h901v3355h-872v-127h356q115 0 152 -25q33 -33 33 -90v-57q0 -46 8 -86v-2671z" />
    <glyph glyph-name="asciicircum" unicode="^" 
d="M1978 2752l-151 -807l-78 29v193q0 259 -236 389q-111 61 -252 61q-32 0 -90 -8q-183 -25 -295 -205q-73 -118 -73 -241q0 -172 102 -283l549 -598q234 -255 234 -649v-23q-3 -175 -127 -372q-116 -183 -328 -275q-122 -53 -332 -53q-147 0 -233 25l-349 102q-27 8 -65 8
q-88 0 -126 -79q-17 -33 -26 -52h-65l123 922l65 -9q35 -450 160 -585q197 -213 438 -213q240 0 388.5 158.5t148.5 381.5q0 213 -127 357l-602 684q-164 186 -164 446q0 244 168 438q137 159 294 213q155 53 329 53h24q59 -1 179 -48q114 -45 137 -50q91 -20 134 -20
q78 0 136 68q31 36 37 42h73zM1826 3450h131l-561 -639h-201l-283 639h91l311 -446z" />
    <glyph glyph-name="underscore" unicode="_" horiz-adv-x="2957" 
d="M516 2703h1102q563 0 879 -365q147 -171 214 -393q37 -123 37 -307q0 -514 -238 -861q-324 -471 -921 -676q-292 -101 -610 -101h-1090v74q144 0 210 61q57 53 98 201l569 2064q12 44 12 70q0 159 -262 159v74zM1175 2474l-565 -2044q-33 -119 -33 -156q0 -113 156 -135
q83 -12 164 -12q271 0 530 97q280 106 449 292q430 473 430 1102v86q0 308 -104 516q-93 183 -287 264q-211 88 -535 100h-17q-158 0 -188 -110z" />
    <glyph glyph-name="a" unicode="a" horiz-adv-x="1270" 
d="M750 1198q-305 159 -392 344q-100 214 -110 460v22q0 196 134 416q155 252 404 270q47 2 136 6q74 5 114 6h24h24q83 0 204 -14q108 -12 123 -82q35 -88 35 -103v-3q-7 -18 -26 -80q-14 -48 -60 -68q-103 -46 -222 -46q-8 0 -36 2q-56 2 -166 12q-56 8 -118 8
q-155 0 -236 -86q-100 -106 -100 -266v-36q0 -96 18 -212q35 -229 278 -404z" />
    <glyph glyph-name="b" unicode="b" 
d="M1049 2597l-320 -1200l161 154q94 89 205 161q93 58 203 90q56 16 152 16q230 0 336 -114q160 -173 160 -463q0 -110 -25 -201q-120 -436 -443 -738q-313 -293 -675 -339q-94 -12 -189 -12q-307 0 -516 209l598 2252q21 79 21 115q0 72 -95 87q-16 3 -155 3v74l606 102
q0 -106 -24 -196zM1552 1417q-91 213 -229 213q-43 0 -94 -12q-124 -29 -259 -129q-148 -108 -220 -215q-117 -173 -320 -1008q-12 -49 -12 -82q0 -176 221 -176q33 0 78 8q445 79 712 648q144 307 144 606q0 98 -21 147z" />
    <glyph glyph-name="c" unicode="c" horiz-adv-x="1593" 
d="M1503 1818l-90 -581l-57 4q-12 95 -59 278q-61 149 -245 193q-50 12 -98 12q-213 0 -213 -221q0 -116 78 -225q285 -398 418 -692q20 -44 20 -119q0 -181 -129 -330q-165 -190 -465 -190q-107 0 -311 33l-49 8q-50 8 -74 8q-77 0 -98 -53l-65 8l81 643l62 -4
q62 -320 138 -408q39 -45 107 -88q110 -69 205 -69q78 0 157 51q84 53 106 125q20 64 20 139q0 148 -111 319l-291 447q-98 151 -98 299q0 273 336 388q96 33 180 33q10 0 303 -65q61 -13 74 -13q89 0 111 74zM848 1852h-160l668 696q36 37 94 37q65 0 102 -41
q41 -45 41 -98q0 -84 -69 -131z" />
    <glyph glyph-name="d" unicode="d" 
d="M2109 2605l-561 -2159q-49 -189 -49 -221q0 -73 61 -73q23 0 58 12q79 27 187 193q48 74 67 89q26 21 37 21q16 0 16 -21q0 -35 -45 -98q-116 -163 -175 -223q-102 -104 -235 -154q-43 -16 -86 -16q-192 0 -192 217q0 76 20 143l66 222l-139 -178q-148 -191 -300 -285
q-93 -58 -212 -90q-123 -33 -160 -33q-60 0 -123 24q-283 108 -283 480q0 73 12 135q66 341 266 610q139 187 332 349q221 186 410 244q94 29 181 29q241 0 278 -262l221 861q21 82 21 114q0 72 -90 87q-17 3 -152 3v74l594 102q0 -100 -25 -196zM1434 1147q49 184 49 282
q0 79 -25 156q-24 143 -184 143q-65 0 -135 -24q-189 -65 -375 -309q-150 -197 -245 -429q-114 -279 -114 -556q22 -246 238 -246q76 0 172 33q184 63 386 412q166 287 233 538z" />
    <glyph glyph-name="e" unicode="e" horiz-adv-x="1818" 
d="M1315 295l126 115q13 12 29 12q24 0 24 -29q0 -19 -16 -37q-102 -114 -263 -224q-174 -118 -306 -152q-128 -33 -217 -33q-146 0 -287 65q-130 60 -203 221q-63 140 -63 299q0 77 8 127q48 299 241 574q186 264 452 432q258 162 479 162q148 0 249 -64q119 -75 119 -215
q0 -58 -25 -123q-118 -304 -437 -454q-158 -74 -354 -126q-117 -27 -351 -83q-29 -134 -29 -209q0 -422 410 -422q80 0 127 16q200 69 287 148zM557 856q550 93 749 421q85 141 86 263v2q0 187 -131 187q-39 0 -94 -21q-154 -58 -282 -217q-226 -279 -328 -635z" />
    <glyph glyph-name="f" unicode="f" horiz-adv-x="1139" 
d="M790 1626l-393 -1675q-37 -156 -138 -356q-110 -215 -214 -312q-145 -135 -348 -135q-130 0 -205 57q-98 75 -98 181q0 81 65 131q54 41 99 41q28 0 69 -21q74 -38 74 -106q0 -46 -29 -99q-10 -16 -26 -47q-2 -6 -2 -14q0 -27 37 -37q31 -8 45 -8q84 0 164 98
q83 102 126 283l475 2019h-360v152h393q118 405 234 598q89 148 122 192q68 90 164 157q107 75 250 77h16q163 0 243 -39q84 -42 118 -108q29 -57 29 -103q0 -65 -49 -115q-56 -57 -136 -57q-155 0 -155 119q1 14 8 33q20 56 20 98q0 71 -49 86q-27 8 -53 8q-90 0 -176 -102
q-103 -122 -168 -378l-119 -466h443v-152h-476z" />
    <glyph glyph-name="g" unicode="g" 
d="M1917 1655l12 -144l-204 -16q20 -71 20 -176q0 -231 -131.5 -408.5t-352.5 -247.5q-167 -53 -307 -53q-65 0 -98 4q-39 0 -103.5 -64t-64.5 -108q0 -41 49 -61l365 -152q302 -126 397 -229q70 -76 70 -221q0 -292 -181 -443q-231 -192 -618 -192q-130 0 -271 25
q-61 7 -180 38q-95 40 -192 170q-86 115 -86 238q0 183 123 266l372 250q-115 73 -115 164q0 33 21 74q53 103 201 207l102 71q-69 38 -206 139q-138 127 -138 316q0 107 41 221q123 342 602 479q88 25 168 25q188 0 373 -119l58 -37zM1077 1712q-220 -58 -324 -429
q-45 -158 -45 -292q0 -92 21 -155q22 -67 90 -108q65 -40 148 -40q201 0 338 234t137 487q0 74 -13 131q-44 193 -225 193q-47 0 -127 -21zM1180 -131q-96 67 -348 152q-135 45 -235 81q-114 -77 -158 -115q-66 -58 -127.5 -146.5t-61.5 -200.5q0 -115 72 -221
q74 -111 210 -164q115 -45 283 -45q336 0 479 241q41 69 41 144q0 165 -155 274z" />
    <glyph glyph-name="h" unicode="h" 
d="M1110 2605l-459 -1663q416 683 840 864q59 25 114 25q134 0 201 -119q45 -80 45 -168q0 -53 -16 -111l-271 -987q-53 -193 -53 -221q0 -73 61 -73q23 0 58 12q75 26 188 193q53 78 66 89q25 21 37 21q16 0 16 -21q0 -35 -45 -98q-116 -163 -175 -223q-102 -104 -235 -154
q-43 -16 -86 -16q-188 0 -188 213q0 76 20 147l304 1086q20 71 20 110q0 71 -45 99q-33 20 -70 20q-50 0 -102 -33q-244 -153 -496 -538q-260 -395 -360 -760l-82 -299h-303l664 2421q20 73 20 118q0 69 -88 83q-16 3 -149 3v74l594 102q0 -105 -25 -196z" />
    <glyph glyph-name="i" unicode="i" horiz-adv-x="1139" 
d="M861 1630l-324 -1184q-54 -197 -54 -221q0 -73 62 -73q22 0 57 12q75 26 188 193q53 79 66 89q26 21 37 21q17 0 17 -21q0 -34 -45 -98q-213 -303 -411 -377q-43 -16 -86 -16q-192 0 -192 217q0 70 20 143l312 1131q20 73 20 119q0 69 -91 84q-16 2 -146 2v73l594 103
q0 -109 -24 -197zM516 2011l-61 98q273 73 352 225q-188 13 -188 172q0 71 49.5 123.5t130.5 52.5q56 0 106 -24q136 -65 136 -180q0 -204 -287 -381q-121 -74 -238 -86z" />
    <glyph glyph-name="j" unicode="j" horiz-adv-x="1139" 
d="M974 1634l-413 -1683q-59 -242 -226 -502q-75 -116 -130 -166q-146 -135 -348 -135q-130 0 -205 57q-98 75 -98 181q0 81 65 131q54 41 99 41q28 0 69 -21q74 -38 74 -106q0 -46 -29 -99q-10 -16 -26 -47q-2 -6 -2 -14q0 -27 37 -37q31 -8 44 -8q197 0 291 381l455 1843
q20 81 20 119q0 69 -88 83q-16 3 -149 3v73l585 103q0 -95 -25 -197zM790 2498q0 83 55 144t137 61q84 0 138.5 -60t54.5 -145q0 -84 -55 -144.5t-138 -60.5q-82 0 -137 61t-55 144z" />
    <glyph glyph-name="k" unicode="k" horiz-adv-x="1818" 
d="M365 0h-299l671 2425q21 76 21 118q0 70 -92 84q-12 2 -146 2v74l594 103q0 -107 -25 -197l-483 -1733l766 656q53 45 53 82q0 94 -262 94v70h721v-70q-62 0 -180 -50q-113 -48 -164 -93l-578 -500q116 -373 258 -645q72 -140 136 -207q24 -37 69 -37q72 0 139 74
l115 176q17 11 25 12q12 0 12 -57q-21 -82 -128 -218q-102 -129 -179 -183q-42 -29 -99 -29q-105 0 -167 82q-163 154 -410 843l-168 -155z" />
    <glyph glyph-name="l" unicode="l" horiz-adv-x="1139" 
d="M1106 2609l-582 -2163q-49 -182 -49 -221q0 -73 62 -73q22 0 57 12q75 26 188 193q53 78 66 89q25 21 37 21q16 0 16 -21q0 -35 -45 -98q-116 -163 -175 -223q-102 -104 -235 -154q-43 -16 -86 -16q-192 0 -192 217q0 68 20 143l566 2110q20 75 20 118q0 69 -88 83
q-16 3 -149 3v74l593 103q0 -108 -24 -197z" />
    <glyph glyph-name="m" unicode="m" horiz-adv-x="2957" 
d="M1335 0h-295l422 1401q21 70 21 110q0 71 -45 99q-32 20 -70 20q-49 0 -102 -33q-236 -147 -485 -534q-254 -395 -355 -764l-82 -299h-299l406 1446q24 85 24 119q0 69 -94 84q-16 2 -148 2v73l594 103q0 -114 -24 -197l-172 -598q208 325 393 524q148 159 369 250
q61 25 115 25q131 0 200 -119q49 -85 49 -180q0 -46 -12 -99l-90 -401q210 328 393 524q147 157 365 250q59 25 114 25q134 0 201 -119q45 -80 45 -168q0 -53 -16 -111l-271 -987q-53 -193 -53 -221q0 -73 61 -73q23 0 58 12q75 26 188 193q53 78 66 89q25 21 36 21
q17 0 17 -21q0 -34 -45 -98q-113 -161 -175 -224q-102 -103 -235 -153q-43 -16 -86 -16q-188 0 -188 213q0 75 20 147l303 1086q21 75 21 110q0 71 -45 99q-33 20 -70 20q-49 0 -102 -33q-260 -160 -517 -581q-229 -375 -323 -717z" />
    <glyph glyph-name="n" unicode="n" 
d="M393 0h-299l422 1446q21 72 21 119q0 69 -91 84q-16 2 -147 2v73l594 103q0 -111 -25 -197l-200 -688q230 379 450 614q148 158 365 250q59 25 114 25q134 0 201 -119q45 -80 45 -168q0 -53 -16 -111l-271 -987q-53 -193 -53 -221q0 -73 61 -73q23 0 58 12q75 26 188 193
q53 78 66 89q25 21 37 21q16 0 16 -21q0 -35 -45 -98q-116 -163 -175 -223q-102 -104 -235 -154q-43 -16 -86 -16q-188 0 -188 213q0 76 20 147l304 1086q20 71 20 110q0 71 -45 99q-33 20 -70 20q-49 0 -102 -33q-335 -210 -643 -789q-143 -267 -209 -509z" />
    <glyph glyph-name="o" unicode="o" 
d="M1978 1777l-701 -2309q-20 -66 -20 -107q0 -91 91 -118q45 -13 167 -13v-74h-807v74q199 0 233 115l357 1192l-201 -252q-185 -231 -417 -301q-110 -33 -180 -33q-77 0 -135 24q-158 66 -234 242q-49 114 -49 250q0 63 12 123q69 346 266 610q140 188 332 349
q220 185 409 244q94 29 181 29q149 0 226 -94q34 -42 57 -86l41 -82l73 217h299zM1482 1147q58 200 58 303q0 278 -246 278q-65 0 -135 -24q-144 -50 -330 -268q-153 -180 -247 -359q-157 -298 -157 -624q0 -21 1 -43q8 -246 238 -246q76 0 171 33q231 80 487 561
q105 198 160 389z" />
    <glyph glyph-name="p" unicode="p" 
d="M402 41l-144 -573q-12 -48 -12 -103q0 -94 86 -122q43 -13 168 -13v-74h-807v74q204 0 233 115l533 2101q16 63 16 110q0 75 -91 92q-19 3 -150 3v73l593 103q0 -95 -24 -197l-53 -225l109 116q132 141 264 220q73 43 163 70q54 16 147 16q219 0 320 -115
q151 -171 151 -463q0 -104 -25 -200q-153 -586 -617 -904q-215 -148 -422 -178q-111 -16 -193 -16q-181 0 -245 90zM1528 1425q-29 101 -94 150q-67 51 -208 51h-10q-121 -1 -242 -105t-204 -239q-64 -103 -141 -378q-87 -306 -166 -630q-12 -49 -12 -90q0 -167 200 -167
q35 0 78 8q425 79 680 647q139 309 139 610q0 74 -20 143z" />
    <glyph glyph-name="q" unicode="q" horiz-adv-x="1818" 
d="M365 0h-299l671 2425q20 72 20 118q0 69 -88 83q-16 3 -149 3v74l594 103q0 -107 -25 -197l-483 -1733l766 656q53 45 53 82q0 94 -262 94v70h721v-70q-62 0 -180 -50q-113 -48 -164 -93l-578 -500q116 -373 258 -645q72 -140 136 -207q24 -37 69 -37q72 0 139 74
l115 176q17 11 25 12q12 0 12 -57q-21 -82 -128 -218q-102 -129 -179 -183q-42 -29 -99 -29q-105 0 -167 82q-163 154 -410 843l-168 -155zM495 -475q0 67 48.5 115.5t115.5 48.5q68 0 116 -48t48 -116q0 -67 -48.5 -115.5t-115.5 -48.5t-115.5 48.5t-48.5 115.5z" />
    <glyph glyph-name="r" unicode="r" horiz-adv-x="1593" 
d="M385 0h-287q107 363 316 1090q49 172 81 352q8 45 8 98q0 87 -86 105q-21 5 -159 5v74l593 103q0 -107 -24 -197l-168 -627q418 649 594 770q71 49 151 49q82 0 127 -49q74 -80 74 -164q0 -88 -94 -155q-52 -37 -103 -37q-61 0 -123 78q-29 36 -36 41q-40 28 -70 28
q-41 0 -98 -65q-259 -294 -404 -645q-66 -161 -173 -489z" />
    <glyph glyph-name="s" unicode="s" horiz-adv-x="1593" 
d="M1503 1818l-90 -581l-57 4q-12 95 -59 278q-61 149 -245 193q-50 12 -98 12q-213 0 -213 -221q0 -116 78 -225q285 -398 418 -692q20 -44 20 -119q0 -181 -129 -330q-165 -190 -465 -190q-107 0 -311 33l-49 8q-50 8 -74 8q-77 0 -98 -53l-65 8l81 643l62 -4
q62 -320 138 -408q39 -45 107 -88q110 -69 205 -69q78 0 157 51q84 53 106 125q20 64 20 139q0 148 -111 319l-291 447q-98 151 -98 299q0 273 336 388q96 33 180 33q10 0 303 -65q61 -13 74 -13q89 0 111 74z" />
    <glyph glyph-name="t" unicode="t" horiz-adv-x="1139" 
d="M1180 1777v-143h-340l-332 -1188q-49 -175 -49 -221q0 -73 61 -73q23 0 58 12q75 26 188 193q53 78 66 89q25 21 37 21q16 0 16 -21q0 -35 -45 -98q-116 -163 -175 -223q-102 -104 -235 -154q-43 -16 -86 -16q-188 0 -188 213q0 74 20 147l361 1319h-287q0 70 94 110
q127 54 170 79q68 40 147 118q83 82 240 267q38 36 62 36q29 0 29 -36q0 -10 -9 -50l-102 -381h299z" />
    <glyph glyph-name="u" unicode="u" 
d="M1614 1778h291l-369 -1409q-25 -95 -25 -152q0 -66 58 -66q106 0 227 184q86 132 121 132q16 0 16 -21q0 -28 -45 -98q-254 -393 -504 -393q-184 0 -184 213q0 73 20 147l156 578l-8 8q-451 -719 -733 -875q-129 -71 -250 -71q-217 0 -217 201q0 56 25 151l299 1139
q20 76 20 119q0 69 -91 84q-16 2 -146 2v73l593 103q0 -106 -24 -197l-328 -1241q-16 -61 -16 -110q0 -103 98 -103q105 0 250 156q431 462 766 1446z" />
    <glyph glyph-name="v" unicode="v" horiz-adv-x="1818" 
d="M675 -45h-81q0 21 2 64q2 42 2 63q0 338 -53 775q-57 469 -115 658q-38 123 -197 123q-23 0 -70 -5l-65 -7v74l549 114q120 -347 193 -959q34 -286 40 -536q214 180 470 594q116 187 161 324q33 101 33 119q0 42 -37 90l-127 164q-25 42 -25 77q0 109 139 131
q173 0 209 -122q29 -97 29 -160q0 -93 -70 -242q-178 -379 -593 -898q-200 -250 -394 -441z" />
    <glyph glyph-name="w" unicode="w" horiz-adv-x="2732" 
d="M57 1687l475 136q47 0 66 -62q89 -289 133 -826q19 -234 19 -411l806 1278h82l148 -1466q335 382 504 634q122 182 163 320q21 70 21 107q0 43 -29 77q-143 166 -143 250q48 107 147 107q43 0 98 -25q115 -53 115 -213q0 -74 -29 -196q-17 -71 -124 -249
q-94 -157 -158 -239l-745 -950h-82l-136 1356l-827 -1356h-82q-28 932 -90 1384q-11 84 -22 169q-27 122 -88 122v0l-222 -4v57z" />
    <glyph glyph-name="x" unicode="x" 
d="M1110 2605l-459 -1663q416 683 840 864q59 25 114 25q134 0 201 -119q45 -80 45 -168q0 -53 -16 -111l-271 -987q-53 -193 -53 -221q0 -73 61 -73q23 0 58 12q75 26 188 193q53 78 66 89q25 21 37 21q16 0 16 -21q0 -35 -45 -98q-116 -163 -175 -223q-102 -104 -235 -154
q-43 -16 -86 -16q-188 0 -188 213q0 76 20 147l304 1086q20 71 20 110q0 71 -45 99q-33 20 -70 20q-50 0 -102 -33q-244 -153 -496 -538q-260 -395 -360 -760l-82 -299h-303l664 2421q20 73 20 118q0 69 -88 83q-16 3 -149 3v74l594 102q0 -105 -25 -196zM127 -258h66
q0 -324 389 -324q426 0 610 324h65q-88 -227 -293 -370q-206 -146 -448 -146q-418 0 -418 344q0 70 29 172z" />
    <glyph glyph-name="y" unicode="y" horiz-adv-x="1818" 
d="M188 -561l156 -78q282 212 492 578q-32 695 -336 1482q-97 250 -271 250q-29 0 -78 -9q-55 -10 -77 -11l-4 61l520 94q97 0 119 -57q240 -634 372 -1389q161 197 353 595q93 194 114 335q0 14 4 41t4 41q0 66 -41 98q-180 139 -180 226q38 127 160 127q42 0 73 -9
q152 -45 152 -274q0 -57 -8 -119q-22 -171 -209 -532q-252 -486 -470 -835q-230 -367 -432 -587t-368 -298q-62 -29 -135 -29q-209 0 -209 168q0 47 21 86q44 82 139 82q65 0 139 -37z" />
    <glyph glyph-name="z" unicode="z" horiz-adv-x="1593" 
d="M1310 483l-131 -483h-1171l1241 1532h-655q-128 0 -183 -77q-28 -40 -79 -173h-78l131 496h1171l-1245 -1532h639q154 0 220 96q30 44 58 141h82z" />
    <glyph glyph-name="braceleft" unicode="{" horiz-adv-x="1966" 
d="M451 1065q194 -81 269 -272q54 -141 54 -392q0 -120 -4 -221l-8 -221q0 -199 37 -319q39 -127 155 -209q110 -78 328 -78q82 0 107 4q-203 43 -275 188q-71 143 -71 340q0 20 1 41l9 242q8 214 8 262q0 241 -56 377q-73 179 -264 258q320 40 320 549q0 44 -8 266l-9 254
q0 355 132 512q77 91 213 127q-81 12 -152 12q-284 0 -381 -172q-94 -167 -94 -479q0 -29 8 -242q4 -107 4 -237q0 -244 -50 -370q-73 -188 -273 -220z" />
    <glyph glyph-name="braceright" unicode="}" horiz-adv-x="1966" 
d="M1192 1098q-173 -54 -238 -209t-65 -389q0 -101 8 -267q12 -249 12 -266q0 -508 -327 -581q20 -4 94 -4q297 0 417 164q103 140 103 450q0 25 -8 246l-8 245q0 244 57 376q77 178 279 235q-210 57 -279.5 221.5t-69.5 433.5q0 64 5 193q4 128 4 192q0 216 -41 352
q-42 140 -181 230q-133 86 -405 86q149 -38 230 -128t110 -207t29 -284q0 -88 -9 -266q-12 -238 -12 -250q0 -478 295 -573z" />
    <glyph glyph-name="asciitilde" unicode="~" horiz-adv-x="1024" 
 />
    <glyph glyph-name="nonbreakingspace" unicode="&#xa0;" horiz-adv-x="2957" 
d="M917 1495h1176l254 905q12 43 12 70q0 159 -262 159v74h942v-74q-143 0 -209 -61q-57 -53 -98 -201l-574 -2064q-12 -43 -12 -70q0 -159 262 -159v-74h-942v74q144 0 209 61q57 53 98 201l283 1016h-1176l-294 -1049q-12 -43 -12 -70q0 -159 262 -159v-74h-942v74
q144 0 209 61q56 52 98 201l582 2064q12 43 12 70q0 159 -262 159v74h941v-74q-144 0 -209 -61q-55 -52 -98 -201z" />
    <glyph glyph-name="exclamdown" unicode="&#xa1;" horiz-adv-x="2957" 
d="M918 1495h1175l254 905q12 43 12 70q0 159 -262 159v74h942v-74q-143 0 -209 -61q-57 -53 -98 -201l-574 -2064q-12 -43 -12 -70q0 -159 262 -159v-74h-942v74q144 0 209 61q57 53 98 201l283 1016h-1175l-295 -1049q-12 -43 -12 -70q0 -159 262 -159v-74h-942v74
q144 0 209 61q56 52 98 201l582 2064q12 43 12 70q0 159 -262 159v74h941v-74q-145 0 -209 -60q-54 -51 -97 -202zM848 -545q0 78 53 131.5t131 53.5q79 0 132 -53t53 -132q0 -78 -53.5 -131t-131.5 -53q-77 0 -130.5 53.5t-53.5 130.5z" />
    <glyph glyph-name="cent" unicode="&#xa2;" horiz-adv-x="2957" 
d="M917 1495h1176l254 905q12 43 12 70q0 159 -262 159v74h942v-74q-143 0 -209 -61q-57 -53 -98 -201l-574 -2064q-12 -43 -12 -70q0 -159 262 -159v-74h-942v74q144 0 209 61q57 53 98 201l283 1016h-1176l-294 -1049q-12 -43 -12 -70q0 -159 262 -159v-74h-942v74
q144 0 209 61q56 52 98 201l582 2064q12 43 12 70q0 159 -262 159v74h941v-74q-144 0 -209 -61q-55 -52 -98 -201zM477 -258h66q0 -324 389 -324q426 0 610 324h65q-88 -227 -293 -370q-206 -146 -448 -146q-418 0 -418 344q0 70 29 172z" />
    <glyph glyph-name="sterling" unicode="&#xa3;" horiz-adv-x="2957" 
d="M917 1495h1176l254 905q12 43 12 70q0 159 -262 159v74h942v-74q-143 0 -209 -61q-57 -53 -98 -201l-574 -2064q-12 -43 -12 -70q0 -159 262 -159v-74h-942v74q144 0 209 61q57 53 98 201l283 1016h-1176l-294 -1049q-12 -43 -12 -70q0 -159 262 -159v-74h-942v74
q144 0 209 61q56 52 98 201l582 2064q12 43 12 70q0 159 -262 159v74h941v-74q-144 0 -209 -61q-55 -52 -98 -201zM447 -594v205h1203v-205h-1203z" />
    <glyph glyph-name="currency" unicode="&#xa4;" 
d="M1978 2752l-151 -807l-78 29v193q0 259 -236 389q-111 61 -252 61q-32 0 -90 -8q-183 -25 -295 -205q-73 -118 -73 -241q0 -172 102 -283l549 -598q234 -255 234 -649v-23q-3 -175 -127 -372q-116 -183 -328 -275q-122 -53 -332 -53q-147 0 -233 25l-349 102q-27 8 -65 8
q-88 0 -126 -79q-17 -33 -26 -52h-65l123 922l65 -9q35 -450 160 -585q197 -213 438 -213q240 0 388.5 158.5t148.5 381.5q0 213 -127 357l-602 684q-164 186 -164 446q0 244 168 438q137 159 294 213q155 53 329 53h24q59 -1 179 -48q114 -45 137 -50q91 -20 134 -20
q78 0 136 68q31 36 37 42h73z" />
    <glyph glyph-name="yen" unicode="&#xa5;" 
d="M1978 2752l-151 -807l-78 29v193q0 259 -236 389q-111 61 -252 61q-32 0 -90 -8q-183 -25 -295 -205q-73 -118 -73 -241q0 -172 102 -283l549 -598q234 -255 234 -649v-23q-3 -175 -127 -372q-116 -183 -328 -275q-122 -53 -332 -53q-147 0 -233 25l-349 102q-27 8 -65 8
q-88 0 -126 -79q-17 -33 -26 -52h-65l123 922l65 -9q35 -450 160 -585q197 -213 438 -213q240 0 388.5 158.5t148.5 381.5q0 213 -127 357l-602 684q-164 186 -164 446q0 244 168 438q137 159 294 213q155 53 329 53h24q59 -1 179 -48q114 -45 137 -50q91 -20 134 -20
q78 0 136 68q31 36 37 42h73zM1826 3450h131l-561 -639h-201l-283 639h91l311 -446z" />
    <glyph glyph-name="brokenbar" unicode="&#xa6;" horiz-adv-x="2277" 
d="M291 2703h2175l-164 -639h-65q16 116 16 168q0 328 -320 328h-368l-561 -2208q-9 -37 -9 -73q0 -205 328 -205v-74h-1151v74q306 0 380 132q37 67 75 216l545 2138h-451q-145 0 -313 -185q-128 -141 -211 -311h-66z" />
    <glyph glyph-name="section" unicode="&#xa7;" horiz-adv-x="2277" 
d="M291 2703h2175l-164 -639h-65q16 116 16 168q0 328 -320 328h-368l-561 -2208q-9 -37 -9 -73q0 -205 328 -205v-74h-1151v74q306 0 380 132q37 67 75 216l545 2138h-451q-145 0 -313 -185q-128 -141 -211 -311h-66zM164 -594v205h1118v-205h-1118z" />
    <glyph glyph-name="dieresis" unicode="&#xa8;" horiz-adv-x="2957" 
d="M516 2703h1102q563 0 879 -365q147 -171 214 -393q37 -123 37 -307q0 -514 -238 -861q-324 -471 -921 -676q-292 -101 -610 -101h-1090v74q144 0 210 61q57 53 98 201l569 2064q12 44 12 70q0 159 -262 159v74zM1175 2474l-565 -2044q-33 -119 -33 -156q0 -113 156 -135
q83 -12 164 -12q271 0 530 97q280 106 449 292q430 473 430 1102v86q0 308 -104 516q-93 183 -287 264q-211 88 -535 100h-17q-158 0 -188 -110z" />
    <glyph glyph-name="copyright" unicode="&#xa9;" horiz-adv-x="2957" 
d="M516 2703h1102q563 0 879 -365q147 -171 214 -393q37 -123 37 -307q0 -514 -238 -861q-324 -471 -921 -676q-292 -101 -610 -101h-1090v74q144 0 210 61q57 53 98 201l569 2064q12 44 12 70q0 159 -262 159v74zM1175 2474l-565 -2044q-33 -119 -33 -156q0 -113 156 -135
q83 -12 164 -12q271 0 530 97q280 106 449 292q430 473 430 1102v86q0 308 -104 516q-93 183 -287 264q-211 88 -535 100h-17q-158 0 -188 -110zM250 -594v205h1536v-205h-1536z" />
    <glyph glyph-name="hyphen" unicode="&#x2010;" horiz-adv-x="1364" 
d="M1130 1040v-254h-905v254h905z" />
  </font>
</defs>
</svg>
